<svg width="48" height="48" viewBox="0 0 48 48" fill="none" xmlns="http://www.w3.org/2000/svg" xmlns:xlink="http://www.w3.org/1999/xlink">
<path d="M48,22.492C47.71,17.813 46.057,13.32 43.245,9.569C40.433,5.818 36.584,2.971 32.174,1.381C27.764,-0.21 22.985,-0.475 18.426,0.617C13.867,1.71 9.727,4.112 6.517,7.529C3.306,10.946 1.166,15.227 0.36,19.846C-0.447,24.464 0.116,29.217 1.978,33.52C3.84,37.822 6.921,41.486 10.84,44.059C14.759,46.632 19.345,48.002 24.034,48L37,48C39.916,47.996 42.712,46.836 44.774,44.774C46.836,42.712 47.996,39.916 48,37L48,22.68L48,22.492ZM42,37C42,38.326 41.473,39.598 40.535,40.535C39.597,41.473 38.326,42 37,42L24.034,42C21.493,41.998 18.98,41.461 16.661,40.424C14.341,39.386 12.266,37.871 10.572,35.978C8.869,34.086 7.591,31.852 6.823,29.426C6.055,26.999 5.814,24.437 6.118,21.91C6.596,17.926 8.386,14.215 11.206,11.361C14.027,8.507 17.716,6.672 21.694,6.146C22.472,6.049 23.255,6 24.04,6C28.232,5.988 32.295,7.45 35.518,10.132C37.396,11.692 38.939,13.618 40.053,15.791C41.168,17.965 41.83,20.341 42,22.778L42,37Z" fill="#FFFFFF"/>
<path d="M19,22L25,22C25.796,22 26.559,21.684 27.122,21.122C27.684,20.559 28,19.796 28,19C28,18.205 27.684,17.442 27.122,16.879C26.559,16.316 25.796,16 25,16L19,16C18.205,16 17.442,16.316 16.879,16.879C16.316,17.442 16,18.205 16,19C16,19.796 16.316,20.559 16.879,21.122C17.442,21.684 18.205,22 19,22Z" fill="#FFFFFF"/>
<path d="M33,26L19,26C18.205,26 17.442,26.316 16.879,26.878C16.316,27.441 16,28.204 16,29C16,29.795 16.316,30.558 16.879,31.121C17.442,31.684 18.205,32 19,32L33,32C33.796,32 34.559,31.684 35.122,31.121C35.684,30.558 36,29.795 36,29C36,28.204 35.684,27.441 35.122,26.878C34.559,26.316 33.796,26 33,26Z" fill="#FFFFFF"/>
</svg>
