<svg width="62" height="42" viewBox="0 0 62 42" fill="none" xmlns="http://www.w3.org/2000/svg" xmlns:xlink="http://www.w3.org/1999/xlink">
<g filter="url(#filter1_427)">
<path d="M38,8.548C38,18.97 21.024,40 13.544,40C6.064,40 0,31.551 0,21.129C0,10.706 9.999,0.16 17.479,0.16C24.959,0.16 38,-1.874 38,8.548Z" fill="#C2C6C2"/>
</g>
<g filter="url(#filter1_428)">
<path d="M62,10.548C62,20.97 45.024,42 37.544,42C30.064,42 24,33.551 24,23.129C24,12.706 33.999,2.16 41.479,2.16C48.959,2.16 62,0.126 62,10.548Z" fill="#C2C6C2"/>
</g>
<defs>
<filter id="filter1_427" x="-12" y="-12" width="43" height="44" filterUnits="userSpaceOnUse" color-interpolation-filters="sRGB">
<feFlood flood-opacity="0" result="BackgroundImageFix"/>
<feBlend mode="normal" in="SourceGraphic" in2="BackgroundImageFix" result="shape"/>
<feGaussianBlur stdDeviation="6" result="0foregroundblur"/>
</filter>
<filter id="filter1_428" x="12" y="-10" width="43" height="44" filterUnits="userSpaceOnUse" color-interpolation-filters="sRGB">
<feFlood flood-opacity="0" result="BackgroundImageFix"/>
<feBlend mode="normal" in="SourceGraphic" in2="BackgroundImageFix" result="shape"/>
<feGaussianBlur stdDeviation="6" result="0foregroundblur"/>
</filter>
</defs>
</svg>
