<svg width="48" height="48" viewBox="0 0 48 48" fill="none" xmlns="http://www.w3.org/2000/svg" xmlns:xlink="http://www.w3.org/1999/xlink">
<path d="M18.576,26.134C13.942,27.026 11.646,32.186 10.65,35.402C10.556,35.701 10.534,36.019 10.586,36.329C10.638,36.639 10.762,36.932 10.948,37.185C11.134,37.438 11.377,37.644 11.658,37.785C11.938,37.927 12.248,38 12.562,38L20,38C20.834,38 21.659,37.826 22.423,37.489C23.186,37.153 23.871,36.66 24.433,36.044C24.995,35.428 25.423,34.701 25.689,33.911C25.954,33.12 26.052,32.282 25.976,31.452C25.87,30.603 25.589,29.785 25.152,29.05C24.715,28.314 24.131,27.677 23.437,27.178C22.742,26.679 21.952,26.328 21.115,26.148C20.279,25.969 19.414,25.964 18.576,26.134L18.576,26.134Z" fill="#FFFFFF"/>
<path d="M46,17.958C45.47,17.958 44.961,18.169 44.586,18.544C44.211,18.919 44,19.428 44,19.958L44,30L36,30C34.409,30 32.883,30.632 31.757,31.757C30.632,32.883 30,34.409 30,36L30,44L10,44C8.409,44 6.883,43.368 5.757,42.243C4.632,41.117 4,39.591 4,38L4,10C4,8.409 4.632,6.883 5.757,5.757C6.883,4.632 8.409,4 10,4L32.084,4C32.614,4 33.123,3.789 33.498,3.414C33.873,3.039 34.084,2.53 34.084,2C34.084,1.47 33.873,0.961 33.498,0.586C33.123,0.211 32.614,0 32.084,0L10,0C7.349,0.003 4.807,1.058 2.932,2.932C1.058,4.807 0.003,7.349 0,10L0,38C0.003,40.651 1.058,43.193 2.932,45.068C4.807,46.942 7.349,47.997 10,48L32.686,48C34,48.004 35.301,47.747 36.514,47.244C37.728,46.742 38.83,46.003 39.756,45.072L45.072,39.756C46.003,38.83 46.742,37.728 47.244,36.514C47.747,35.301 48.004,34 48,32.686L48,19.958C48,19.428 47.789,18.919 47.414,18.544C47.039,18.169 46.53,17.958 46,17.958ZM36.928,42.244C36.121,43.042 35.107,43.596 34,43.844L34,36C34,35.47 34.211,34.961 34.586,34.586C34.961,34.211 35.47,34 36,34L43.85,34C43.602,35.107 43.048,36.121 42.25,36.928L36.928,42.244Z" fill="#FFFFFF"/>
<path d="M29.132,28.34C28.736,28.34 28.35,28.222 28.021,28.003C27.692,27.783 27.436,27.47 27.285,27.105C27.133,26.74 27.094,26.338 27.171,25.95C27.248,25.562 27.438,25.205 27.718,24.926L43.424,9.22C43.599,9.045 43.739,8.837 43.834,8.607C43.929,8.378 43.978,8.133 43.978,7.885C43.978,7.637 43.929,7.391 43.834,7.162C43.739,6.933 43.599,6.725 43.424,6.55C43.245,6.364 43.029,6.219 42.79,6.124C42.55,6.029 42.293,5.987 42.036,6C41.779,6.005 41.526,6.064 41.292,6.172C41.059,6.28 40.851,6.435 40.68,6.628L25.48,23.442C25.124,23.835 24.627,24.072 24.097,24.098C23.567,24.125 23.049,23.94 22.655,23.585C22.261,23.229 22.025,22.732 21.998,22.202C21.972,21.672 22.156,21.153 22.512,20.76L37.712,3.96C38.245,3.365 38.893,2.884 39.618,2.547C40.342,2.21 41.127,2.024 41.926,2C42.726,1.983 43.521,2.126 44.264,2.423C45.007,2.719 45.683,3.161 46.252,3.724C47.354,4.829 47.974,6.326 47.974,7.887C47.974,9.448 47.354,10.945 46.252,12.05L30.546,27.756C30.361,27.942 30.14,28.089 29.897,28.189C29.655,28.29 29.395,28.341 29.132,28.34Z" fill="#FFFFFF"/>
</svg>
