<svg width="32" height="50" viewBox="0 0 32 50" fill="none" xmlns="http://www.w3.org/2000/svg" xmlns:xlink="http://www.w3.org/1999/xlink">
<path d="M14.905,28.038C6.381,28.808 -0.112,36.01 0.001,44.568L0.001,45.002C0.001,46.658 1.344,48.002 3.001,48.002C4.658,48.002 6.001,46.658 6.001,45.002L6.001,44.448C5.911,39.193 9.788,34.713 15.001,34.048C20.503,33.502 25.406,37.52 25.952,43.023C25.984,43.348 26,43.675 26.001,44.002L26.001,45.002C26.001,46.658 27.344,48.002 29.001,48.002C30.657,48.002 32.001,46.658 32.001,45.002L32.001,44.001C31.991,35.155 24.811,27.991 15.965,28.001C15.611,28.002 15.258,28.014 14.905,28.038Z" fill="#FFFFFF"/>
<path d="M16.001,24C22.628,24 28.001,18.627 28.001,12C28.001,5.373 22.628,0 16.001,0C9.373,0 4.001,5.373 4.001,12C4.007,18.625 9.376,23.993 16.001,24ZM16.001,6C19.315,6 22.001,8.686 22.001,12C22.001,15.314 19.315,18 16.001,18C12.687,18 10.001,15.314 10.001,12C10.001,8.686 12.687,6 16.001,6Z" fill="#FFFFFF"/>
</svg>
