<svg width="48" height="48" viewBox="0 0 48 48" fill="none" xmlns="http://www.w3.org/2000/svg" xmlns:xlink="http://www.w3.org/1999/xlink">
<path d="M16,42L6.818,42C6.601,41.999 6.393,41.913 6.24,41.76C6.087,41.607 6.001,41.399 6,41.182L6,6.818C6.001,6.601 6.087,6.393 6.24,6.24C6.393,6.087 6.601,6.001 6.818,6L16,6C16.796,6 17.559,5.684 18.121,5.121C18.684,4.559 19,3.796 19,3C19,2.204 18.684,1.441 18.121,0.879C17.559,0.316 16.796,0 16,0L6.818,0C5.01,0.002 3.277,0.721 1.999,1.999C0.721,3.277 0.002,5.01 0,6.818L0,41.182C0.002,42.99 0.721,44.723 1.999,46.001C3.277,47.279 5.01,47.998 6.818,48L16,48C16.796,48 17.559,47.684 18.121,47.121C18.684,46.559 19,45.796 19,45C19,44.204 18.684,43.441 18.121,42.879C17.559,42.316 16.796,42 16,42Z" fill="#EF2A39"/>
<path d="M45.364,17.635L37.6,9.877C37.322,9.598 36.991,9.377 36.627,9.226C36.263,9.076 35.873,8.998 35.479,8.998C35.085,8.998 34.695,9.076 34.331,9.227C33.967,9.378 33.636,9.599 33.357,9.878C33.079,10.156 32.858,10.487 32.707,10.851C32.557,11.215 32.479,11.605 32.479,11.999C32.479,12.795 32.796,13.558 33.358,14.121L40.182,20.943L13,20.999C12.205,20.999 11.442,21.315 10.879,21.877C10.316,22.44 10,23.203 10,23.999C10,24.794 10.316,25.557 10.879,26.12C11.442,26.682 12.205,26.999 13,26.999L13,26.999L40.292,26.949L33.358,33.882C32.829,34.451 32.541,35.204 32.555,35.981C32.569,36.758 32.884,37.5 33.434,38.049C33.984,38.598 34.725,38.913 35.503,38.926C36.28,38.939 37.032,38.651 37.6,38.12L45.358,30.362C46.194,29.527 46.857,28.535 47.309,27.443C47.762,26.351 47.994,25.18 47.994,23.999C47.994,22.817 47.762,21.646 47.309,20.554C46.857,19.462 46.194,18.47 45.358,17.635L45.364,17.635Z" fill="#EF2A39"/>
</svg>
