<svg width="790" height="120" viewBox="0 0 790 120" fill="none" xmlns="http://www.w3.org/2000/svg" xmlns:xlink="http://www.w3.org/1999/xlink">
<path d="M44,0L40,0C17.909,0 0,17.909 0,40L0,80C0,102.091 17.909,120 40,120L750,120C772.092,120 790,102.091 790,80L790,40C790,17.909 772.092,0 750,0L308,0L308,4L750,4C769.882,4 786,20.118 786,40L786,80C786,99.882 769.882,116 750,116L40,116C20.118,116 4,99.882 4,80L4,40C4,20.118 20.118,4 40,4L44,4L44,0Z" clip-rule="evenodd" fill-rule="evenodd" fill="#E1E1E1"/>
</svg>
