<svg width="50" height="44" viewBox="0 0 50 44" fill="none" xmlns="http://www.w3.org/2000/svg" xmlns:xlink="http://www.w3.org/1999/xlink">
<path d="M35,-0.167C32.748,-0.132 30.545,0.497 28.613,1.656C26.682,2.814 25.091,4.462 24,6.433C22.909,4.462 21.318,2.814 19.386,1.656C17.455,0.497 15.252,-0.132 13,-0.167C9.41,-0.011 6.027,1.56 3.591,4.202C1.156,6.843 -0.136,10.342 0,13.933C0,23.027 9.572,32.959 17.6,39.693C19.392,41.199 21.659,42.025 24,42.025C26.341,42.025 28.607,41.199 30.4,39.693C38.428,32.959 48,23.027 48,13.933C48.135,10.342 46.844,6.843 44.408,4.202C41.972,1.56 38.59,-0.011 35,-0.167Z" fill="#FFFFFF"/>
</svg>
