<svg width="26" height="30" viewBox="0 0 26 30" fill="none" xmlns="http://www.w3.org/2000/svg" xmlns:xlink="http://www.w3.org/1999/xlink">
<path d="M21.75,10.53L21.75,8.75C21.75,3.918 17.833,0 13,0C8.167,0 4.25,3.918 4.25,8.75L4.25,10.53C1.975,11.523 0.503,13.768 0.5,16.25L0.5,23.75C0.504,27.2 3.3,29.996 6.75,30L19.25,30C22.7,29.996 25.496,27.2 25.5,23.75L25.5,16.25C25.497,13.768 24.025,11.523 21.75,10.53ZM14.25,21.25C14.25,21.94 13.69,22.5 13,22.5C12.31,22.5 11.75,21.94 11.75,21.25L11.75,18.75C11.75,18.06 12.31,17.5 13,17.5C13.69,17.5 14.25,18.06 14.25,18.75L14.25,21.25L14.25,21.25ZM19.25,10L6.75,10L6.75,8.75C6.75,5.298 9.548,2.5 13,2.5C16.452,2.5 19.25,5.298 19.25,8.75L19.25,10L19.25,10Z" fill="#808080"/>
</svg>
