<svg width="50" height="44" viewBox="0 0 50 44" fill="none" xmlns="http://www.w3.org/2000/svg" xmlns:xlink="http://www.w3.org/1999/xlink">
<path d="M34.5,-0.299C32.449,-0.279 30.43,0.221 28.607,1.161C26.784,2.102 25.206,3.456 24,5.115C22.794,3.456 21.216,2.102 19.393,1.161C17.57,0.221 15.551,-0.279 13.5,-0.299C9.783,-0.15 6.277,1.464 3.747,4.19C1.217,6.917 -0.13,10.534 0,14.251C0,23.355 9.348,33.101 17.2,39.675C19.107,41.279 21.518,42.158 24.009,42.158C26.5,42.158 28.911,41.279 30.818,39.675C38.662,33.101 48.018,23.355 48.018,14.251C48.148,10.531 46.798,6.911 44.264,4.184C41.731,1.457 38.22,-0.155 34.5,-0.299L34.5,-0.299ZM26.954,35.077C26.127,35.774 25.08,36.156 23.999,36.156C22.918,36.156 21.871,35.774 21.044,35.077C11.484,27.061 6,19.471 6,14.251C5.872,12.126 6.588,10.036 7.993,8.435C9.397,6.834 11.376,5.852 13.5,5.701C15.624,5.852 17.603,6.834 19.007,8.435C20.411,10.036 21.128,12.126 21,14.251C21,15.047 21.316,15.81 21.879,16.373C22.441,16.935 23.204,17.251 24,17.251C24.796,17.251 25.559,16.935 26.121,16.373C26.684,15.81 27,15.047 27,14.251C26.872,12.126 27.589,10.036 28.993,8.435C30.397,6.834 32.376,5.852 34.5,5.701C36.624,5.852 38.603,6.834 40.007,8.435C41.411,10.036 42.128,12.126 42,14.251C42,19.471 36.516,27.061 26.954,35.077Z" fill="#3C2F2F"/>
</svg>
