<svg width="48" height="50" viewBox="0 0 48 50" fill="none" xmlns="http://www.w3.org/2000/svg" xmlns:xlink="http://www.w3.org/1999/xlink">
<path d="M45.949,17.39L31.777,3.218C27.479,-1.069 20.52,-1.069 16.221,3.218L2.049,17.39C0.732,18.7 -0.006,20.483 -0.001,22.34L-0.001,43.096C0.004,45.806 2.2,48 4.909,48.002L43.089,48.002C45.799,48 47.995,45.806 47.999,43.096L47.999,22.34C48.005,20.483 47.266,18.7 45.949,17.39ZM41.999,42.002L31.999,42.002L31.999,35.638C31.999,31.421 28.581,28.002 24.363,28.002L23.635,28.002C19.418,28.002 15.999,31.421 15.999,35.638L15.999,42.002L5.999,42.002L5.999,22.34C6,22.075 6.105,21.821 6.291,21.632L20.463,7.46C22.416,5.507 25.582,5.507 27.534,7.459C27.535,7.46 27.535,7.46 27.535,7.46L41.707,21.632C41.894,21.821 41.999,22.075 41.999,22.34L41.999,42.002L41.999,42.002Z" fill="#FFFFFF"/>
</svg>
