<svg width="48" height="14" viewBox="0 0 48 14" fill="none" xmlns="http://www.w3.org/2000/svg" xmlns:xlink="http://www.w3.org/1999/xlink">
<path d="M21.4,3.251C20.838,2.055 19.947,1.044 18.831,0.336C17.715,-0.372 16.421,-0.748 15.1,-0.748C13.779,-0.748 12.485,-0.372 11.369,0.336C10.253,1.044 9.362,2.055 8.8,3.251L3,3.251C2.204,3.251 1.441,3.567 0.879,4.129C0.316,4.692 0,5.455 0,6.251L0,6.251C0,7.046 0.316,7.809 0.879,8.372C1.441,8.935 2.204,9.251 3,9.251L8.79,9.251C9.352,10.446 10.243,11.457 11.359,12.166C12.475,12.874 13.769,13.25 15.09,13.25C16.411,13.25 17.705,12.874 18.821,12.166C19.937,11.457 20.828,10.446 21.39,9.251L45,9.251C45.796,9.251 46.559,8.935 47.121,8.372C47.684,7.809 48,7.046 48,6.251C48,5.455 47.684,4.692 47.121,4.129C46.559,3.567 45.796,3.251 45,3.251L21.4,3.251Z" fill="#FFFFFF"/>
</svg>
