<svg width="44" height="48" viewBox="0 0 44 48" fill="none" xmlns="http://www.w3.org/2000/svg" xmlns:xlink="http://www.w3.org/1999/xlink">
<path d="M1.214,36C2.868,38.871 6.537,39.858 9.408,38.203C9.41,38.202 9.412,38.201 9.414,38.2L10.304,37.686C11.984,39.123 13.915,40.238 16,40.974L16,42C16,45.314 18.686,48 22,48C25.313,48 28,45.314 28,42L28,40.974C30.085,40.237 32.016,39.121 33.696,37.682L34.59,38.198C37.461,39.855 41.133,38.87 42.79,35.998C44.446,33.126 43.461,29.455 40.59,27.798L39.702,27.286C40.101,25.111 40.101,22.881 39.702,20.706L40.59,20.194C43.461,18.537 44.446,14.866 42.79,11.994C41.133,9.122 37.461,8.137 34.59,9.794L33.7,10.308C32.018,8.872 30.085,7.76 28,7.026L28,6C28,2.686 25.313,0 22,0C18.686,0 16,2.686 16,6L16,7.026C13.914,7.763 11.983,8.879 10.304,10.318L9.41,9.8C6.538,8.143 2.866,9.128 1.21,12C-0.447,14.872 0.538,18.543 3.41,20.2L4.298,20.712C3.898,22.887 3.898,25.117 4.298,27.292L3.41,27.804C0.546,29.465 -0.436,33.129 1.214,36ZM22,16C26.418,16 30,19.582 30,24C30,28.418 26.418,32 22,32C17.581,32 14,28.418 14,24C14,19.582 17.581,16 22,16Z" fill="#FFFFFF"/>
</svg>
