<svg width="48" height="16" viewBox="0 0 48 16" fill="none" xmlns="http://www.w3.org/2000/svg" xmlns:xlink="http://www.w3.org/1999/xlink">
<path d="M15.09,0.749C13.769,0.752 12.476,1.129 11.361,1.837C10.246,2.545 9.354,3.555 8.79,4.749L3,4.749C2.204,4.749 1.441,5.065 0.879,5.627C0.316,6.19 0,6.953 0,7.749L0,7.749C0,8.544 0.316,9.307 0.879,9.87C1.441,10.433 2.204,10.749 3,10.749L8.79,10.749C9.352,11.944 10.243,12.955 11.359,13.664C12.475,14.372 13.769,14.748 15.09,14.748C16.411,14.748 17.705,14.372 18.821,13.664C19.937,12.955 20.828,11.944 21.39,10.749L45,10.749C45.796,10.749 46.559,10.433 47.121,9.87C47.684,9.307 48,8.544 48,7.749C48,6.953 47.684,6.19 47.121,5.627C46.559,5.065 45.796,4.749 45,4.749L21.4,4.749C20.835,3.553 19.942,2.542 18.825,1.834C17.708,1.126 16.413,0.75 15.09,0.749L15.09,0.749Z" fill="#FFFFFF"/>
</svg>
