<svg width="48" height="48" viewBox="0 0 48 48" fill="none" xmlns="http://www.w3.org/2000/svg" xmlns:xlink="http://www.w3.org/1999/xlink">
<path d="M45.999,2.005C44.345,0.328 41.933,-0.36 39.644,0.193L9.072,6.618C3.267,7.477 -0.743,12.88 0.116,18.686C0.45,20.943 1.501,23.032 3.115,24.646L6.393,27.925C6.546,28.076 6.632,28.283 6.631,28.499L6.631,34.546C6.635,38.308 9.684,41.357 13.446,41.361L19.493,41.361C19.709,41.361 19.916,41.447 20.069,41.599L23.346,44.877C25.328,46.872 28.023,47.994 30.835,47.996C31.996,47.995 33.149,47.805 34.248,47.434C38.044,46.174 40.802,42.878 41.373,38.92L47.798,8.444C48.376,6.13 47.692,3.684 45.999,2.005ZM6.243,15.655C6.786,13.976 8.253,12.763 10.004,12.545C10.075,12.536 10.145,12.524 10.214,12.509L36.854,6.91L12.63,31.121L12.63,28.499C12.634,26.69 11.914,24.955 10.63,23.682L7.357,20.404C6.096,19.171 5.661,17.32 6.243,15.655ZM35.482,37.788C35.466,37.858 35.456,37.928 35.446,37.998C35.099,40.531 32.764,42.303 30.231,41.955C29.23,41.818 28.302,41.357 27.587,40.643L24.312,37.368C23.038,36.084 21.302,35.363 19.493,35.368L16.871,35.368L41.09,11.144L35.482,37.788Z" fill="#FFFFFF"/>
</svg>
