<svg width="40" height="40" viewBox="0 0 40 40" fill="none" xmlns="http://www.w3.org/2000/svg" xmlns:xlink="http://www.w3.org/1999/xlink">
<path d="M39.269,35.742L31.527,27.997C37.32,20.256 35.741,9.284 27.999,3.491C20.258,-2.301 9.286,-0.722 3.493,7.019C-2.3,14.761 -0.72,25.732 7.021,31.525C13.24,36.179 21.781,36.179 27.999,31.525L35.744,39.27C36.718,40.244 38.296,40.244 39.269,39.27C40.242,38.297 40.242,36.719 39.269,35.746L39.269,35.742ZM17.575,30.03C10.695,30.03 5.117,24.453 5.117,17.573C5.117,10.693 10.695,5.115 17.575,5.115C24.455,5.115 30.032,10.693 30.032,17.573C30.025,24.45 24.452,30.023 17.575,30.03Z" fill="#3C2F2F"/>
</svg>
