<svg width="34" height="32" viewBox="0 0 34 32" fill="none" xmlns="http://www.w3.org/2000/svg" xmlns:xlink="http://www.w3.org/1999/xlink">
<path d="M30.333,12.5L9.816,12.5L15.507,6.809C16.164,6.153 16.533,5.262 16.533,4.334C16.533,3.406 16.165,2.515 15.508,1.859C14.852,1.202 13.962,0.833 13.033,0.833C12.105,0.833 11.215,1.201 10.558,1.858L2.191,10.225C0.662,11.758 -0.197,13.835 -0.197,16C-0.197,18.165 0.662,20.242 2.191,21.775L10.558,30.142C11.215,30.799 12.105,31.167 13.033,31.167C13.962,31.167 14.852,30.798 15.508,30.141C16.165,29.485 16.533,28.594 16.533,27.666C16.533,26.737 16.164,25.847 15.507,25.191L9.816,19.5L30.333,19.5C31.261,19.5 32.152,19.131 32.808,18.475C33.464,17.818 33.833,16.928 33.833,16C33.833,15.072 33.464,14.181 32.808,13.525C32.152,12.869 31.261,12.5 30.333,12.5Z" fill="#3C2F2F"/>
</svg>
