<svg width="16" height="32" viewBox="0 0 16 32" fill="none" xmlns="http://www.w3.org/2000/svg" xmlns:xlink="http://www.w3.org/1999/xlink">
<path d="M13.5,11.05L4.328,1.878C3.765,1.315 3.002,1 2.206,1C1.411,1 0.648,1.316 0.085,1.879C-0.477,2.442 -0.793,3.205 -0.793,4.001C-0.793,4.796 -0.477,5.559 0.086,6.122L9.258,15.292C9.351,15.385 9.425,15.495 9.476,15.617C9.526,15.738 9.552,15.868 9.552,16C9.552,16.132 9.526,16.262 9.476,16.383C9.425,16.505 9.351,16.615 9.258,16.708L0.086,25.878C-0.477,26.441 -0.793,27.204 -0.793,27.999C-0.793,28.795 -0.477,29.558 0.085,30.121C0.648,30.684 1.411,31 2.206,31C3.002,31 3.765,30.685 4.328,30.122L13.5,20.95C14.811,19.636 15.546,17.856 15.546,16C15.546,14.144 14.811,12.364 13.5,11.05L13.5,11.05Z" fill="#808080"/>
</svg>
