<svg width="48" height="16" viewBox="0 0 48 16" fill="none" xmlns="http://www.w3.org/2000/svg" xmlns:xlink="http://www.w3.org/1999/xlink">
<path d="M32.91,0.999C31.589,1.001 30.295,1.378 29.18,2.086C28.064,2.794 27.173,3.804 26.608,4.999L3,4.999C2.204,4.999 1.441,5.315 0.879,5.877C0.316,6.44 0,7.203 0,7.999L0,7.999C0,8.794 0.316,9.557 0.879,10.12C1.441,10.683 2.204,10.999 3,10.999L26.6,10.999C27.162,12.194 28.053,13.205 29.169,13.914C30.285,14.622 31.579,14.998 32.9,14.998C34.221,14.998 35.515,14.622 36.631,13.914C37.747,13.205 38.638,12.194 39.2,10.999L45,10.999C45.796,10.999 46.559,10.683 47.121,10.12C47.684,9.557 48,8.794 48,7.999C48,7.203 47.684,6.44 47.121,5.877C46.559,5.315 45.796,4.999 45,4.999L39.21,4.999C38.646,3.805 37.754,2.795 36.639,2.087C35.524,1.379 34.231,1.002 32.91,0.999L32.91,0.999Z" fill="#FFFFFF"/>
</svg>
